<svg width="152" height="24" viewBox="0 0 152 24" fill="none" xmlns="http://www.w3.org/2000/svg">
<path d="M0.636364 23.5L4.5 0.227272H12.3523C13.8674 0.227272 15.0871 0.492423 16.0114 1.02273C16.9356 1.55303 17.572 2.27652 17.9205 3.19318C18.2765 4.10985 18.3523 5.15152 18.1477 6.31818C17.9886 7.28788 17.6894 8.11742 17.25 8.80682C16.8106 9.48864 16.2765 10.0455 15.6477 10.4773C15.0265 10.9015 14.3561 11.2083 13.6364 11.3977L13.6023 11.5795C14.3447 11.6326 15.0303 11.8977 15.6591 12.375C16.2879 12.8447 16.7576 13.5038 17.0682 14.3523C17.3864 15.2008 17.4508 16.2159 17.2614 17.3977C17.0644 18.572 16.625 19.6212 15.9432 20.5455C15.2689 21.4621 14.3447 22.1856 13.1705 22.7159C12.0038 23.2386 10.5871 23.5 8.92045 23.5H0.636364ZM3.07955 21.5909H9.23864C11.0341 21.5909 12.428 21.1932 13.4205 20.3977C14.4129 19.6023 15.0152 18.6023 15.2273 17.3977C15.3712 16.5114 15.2879 15.7083 14.9773 14.9886C14.6667 14.2614 14.1591 13.6856 13.4545 13.2614C12.75 12.8371 11.875 12.625 10.8295 12.625H4.57955L3.07955 21.5909ZM4.89773 10.7386H10.8182C11.7348 10.7386 12.5682 10.5492 13.3182 10.1705C14.0682 9.79167 14.6894 9.26894 15.1818 8.60227C15.6742 7.93561 15.9886 7.17424 16.125 6.31818C16.3371 5.08333 16.1061 4.07954 15.4318 3.30682C14.7652 2.52651 13.6326 2.13636 12.0341 2.13636H6.30682L4.89773 10.7386ZM27.946 23.8636C26.3172 23.8636 24.9725 23.4848 23.9119 22.7273C22.8513 21.9621 22.1089 20.9053 21.6847 19.5568C21.2604 18.2008 21.196 16.6402 21.4915 14.875C21.7869 13.1174 22.3703 11.5568 23.2415 10.1932C24.1127 8.82197 25.1884 7.75 26.4688 6.97727C27.7491 6.19697 29.1392 5.80682 30.6392 5.80682C31.5862 5.80682 32.4725 5.98106 33.2983 6.32954C34.1241 6.67045 34.8248 7.19697 35.4006 7.90909C35.9839 8.61364 36.3892 9.50379 36.6165 10.5795C36.8438 11.6477 36.8362 12.9129 36.5938 14.375L36.4347 15.375H22.7983L23.0824 13.5909H34.6619C34.8513 12.4697 34.7983 11.4621 34.5028 10.5682C34.2074 9.67424 33.7036 8.96591 32.9915 8.44318C32.2869 7.91288 31.4119 7.64773 30.3665 7.64773C29.2983 7.64773 28.2869 7.94697 27.3324 8.54545C26.3854 9.14394 25.5824 9.92424 24.9233 10.8864C24.2718 11.8409 23.8513 12.8598 23.6619 13.9432L23.4347 15.2841C23.1922 16.7614 23.2225 18 23.5256 19C23.8286 19.9924 24.3778 20.7424 25.1733 21.25C25.9688 21.7576 26.9877 22.0114 28.2301 22.0114C29.0634 22.0114 29.8172 21.8826 30.4915 21.625C31.1657 21.3674 31.7528 21.0227 32.2528 20.5909C32.7528 20.1515 33.1544 19.6705 33.4574 19.1477L35.2642 19.7727C34.8778 20.5076 34.3324 21.1856 33.6278 21.8068C32.9309 22.428 32.1013 22.928 31.1392 23.3068C30.1847 23.678 29.1203 23.8636 27.946 23.8636Z" fill="#020512"/>
<path d="M40.608 23.5V0.227272H55.517V3.76136H44.8239V10.0795H54.4943V13.6136H44.8239V23.5H40.608ZM69.2074 16.1591V6.04545H73.321V23.5H69.3324V20.3977H69.1506C68.7566 21.375 68.1089 22.1742 67.2074 22.7955C66.3134 23.4167 65.2112 23.7273 63.9006 23.7273C62.7566 23.7273 61.7453 23.4735 60.8665 22.9659C59.9953 22.4508 59.3134 21.7045 58.821 20.7273C58.3286 19.7424 58.0824 18.553 58.0824 17.1591V6.04545H62.196V16.5227C62.196 17.6288 62.4991 18.5076 63.1051 19.1591C63.7112 19.8106 64.5066 20.1364 65.4915 20.1364C66.0975 20.1364 66.6847 19.9886 67.2528 19.6932C67.821 19.3977 68.2869 18.9583 68.6506 18.375C69.0218 17.7841 69.2074 17.0455 69.2074 16.1591ZM81.6648 13.2727V23.5H77.5511V6.04545H81.483V9.01136H81.6875C82.089 8.03409 82.7292 7.25758 83.608 6.68182C84.4943 6.10606 85.589 5.81818 86.892 5.81818C88.0966 5.81818 89.1458 6.07576 90.0398 6.59091C90.9413 7.10606 91.6383 7.85227 92.1307 8.82955C92.6307 9.80682 92.8769 10.9924 92.8693 12.3864V23.5H88.7557V13.0227C88.7557 11.8561 88.4527 10.9432 87.8466 10.2841C87.2481 9.625 86.4186 9.29545 85.358 9.29545C84.6383 9.29545 83.9981 9.45455 83.4375 9.77273C82.8845 10.0833 82.4489 10.5341 82.1307 11.125C81.8201 11.7159 81.6648 12.4318 81.6648 13.2727ZM103.528 23.8068C102.157 23.8068 100.93 23.4545 99.8466 22.75C98.7633 22.0455 97.9072 21.0227 97.2784 19.6818C96.6496 18.3409 96.3352 16.7121 96.3352 14.7955C96.3352 12.8561 96.6534 11.2197 97.2898 9.88636C97.9337 8.54545 98.8011 7.53409 99.892 6.85227C100.983 6.16288 102.199 5.81818 103.54 5.81818C104.563 5.81818 105.403 5.99242 106.062 6.34091C106.722 6.68182 107.244 7.0947 107.631 7.57955C108.017 8.05682 108.316 8.50758 108.528 8.93182H108.699V0.227272H112.824V23.5H108.778V20.75H108.528C108.316 21.1742 108.009 21.625 107.608 22.1023C107.206 22.572 106.676 22.9735 106.017 23.3068C105.358 23.6402 104.528 23.8068 103.528 23.8068ZM104.676 20.4318C105.547 20.4318 106.29 20.197 106.903 19.7273C107.517 19.25 107.983 18.5871 108.301 17.7386C108.619 16.8902 108.778 15.9015 108.778 14.7727C108.778 13.6439 108.619 12.6629 108.301 11.8295C107.991 10.9962 107.528 10.3485 106.915 9.88636C106.309 9.42424 105.563 9.19318 104.676 9.19318C103.759 9.19318 102.994 9.43182 102.381 9.90909C101.767 10.3864 101.305 11.0455 100.994 11.8864C100.684 12.7273 100.528 13.6894 100.528 14.7727C100.528 15.8636 100.684 16.8371 100.994 17.6932C101.313 18.5417 101.778 19.2121 102.392 19.7045C103.013 20.1894 103.775 20.4318 104.676 20.4318ZM124.935 23.8409C123.185 23.8409 121.673 23.4773 120.401 22.75C119.135 22.0152 118.162 20.9773 117.48 19.6364C116.798 18.2879 116.457 16.7008 116.457 14.875C116.457 13.0795 116.798 11.5038 117.48 10.1477C118.17 8.78409 119.132 7.72348 120.366 6.96591C121.601 6.20076 123.052 5.81818 124.719 5.81818C125.795 5.81818 126.81 5.99242 127.764 6.34091C128.726 6.68182 129.575 7.21212 130.31 7.93182C131.052 8.65151 131.635 9.56818 132.06 10.6818C132.484 11.7879 132.696 13.1061 132.696 14.6364V15.8977H118.389V13.125H128.753C128.745 12.3371 128.575 11.6364 128.241 11.0227C127.908 10.4015 127.442 9.91288 126.844 9.55682C126.253 9.20076 125.563 9.02273 124.776 9.02273C123.935 9.02273 123.196 9.22727 122.56 9.63636C121.923 10.0379 121.427 10.5682 121.071 11.2273C120.723 11.8788 120.545 12.5947 120.537 13.375V15.7955C120.537 16.8106 120.723 17.6818 121.094 18.4091C121.465 19.1288 121.984 19.6818 122.651 20.0682C123.317 20.447 124.098 20.6364 124.991 20.6364C125.59 20.6364 126.132 20.553 126.616 20.3864C127.101 20.2121 127.522 19.9583 127.878 19.625C128.234 19.2917 128.503 18.8788 128.685 18.3864L132.526 18.8182C132.283 19.8333 131.821 20.7197 131.139 21.4773C130.465 22.2273 129.601 22.8106 128.548 23.2273C127.495 23.6364 126.291 23.8409 124.935 23.8409ZM142.653 23.8068C141.282 23.8068 140.055 23.4545 138.972 22.75C137.888 22.0455 137.032 21.0227 136.403 19.6818C135.775 18.3409 135.46 16.7121 135.46 14.7955C135.46 12.8561 135.778 11.2197 136.415 9.88636C137.059 8.54545 137.926 7.53409 139.017 6.85227C140.108 6.16288 141.324 5.81818 142.665 5.81818C143.688 5.81818 144.528 5.99242 145.188 6.34091C145.847 6.68182 146.369 7.0947 146.756 7.57955C147.142 8.05682 147.441 8.50758 147.653 8.93182H147.824V0.227272H151.949V23.5H147.903V20.75H147.653C147.441 21.1742 147.134 21.625 146.733 22.1023C146.331 22.572 145.801 22.9735 145.142 23.3068C144.483 23.6402 143.653 23.8068 142.653 23.8068ZM143.801 20.4318C144.672 20.4318 145.415 20.197 146.028 19.7273C146.642 19.25 147.108 18.5871 147.426 17.7386C147.744 16.8902 147.903 15.9015 147.903 14.7727C147.903 13.6439 147.744 12.6629 147.426 11.8295C147.116 10.9962 146.653 10.3485 146.04 9.88636C145.434 9.42424 144.688 9.19318 143.801 9.19318C142.884 9.19318 142.119 9.43182 141.506 9.90909C140.892 10.3864 140.43 11.0455 140.119 11.8864C139.809 12.7273 139.653 13.6894 139.653 14.7727C139.653 15.8636 139.809 16.8371 140.119 17.6932C140.438 18.5417 140.903 19.2121 141.517 19.7045C142.138 20.1894 142.9 20.4318 143.801 20.4318Z" fill="#132CAD"/>
</svg>
