<svg width="750" height="500" viewBox="0 0 750 500" fill="none" xmlns="http://www.w3.org/2000/svg">
<path d="M704.18 191.6C696.3 163.22 643.77 194.09 643.77 194.09L657.52 169.15C659.183 166.643 660.638 164.004 661.87 161.26C668.78 145.82 668.69 129.26 661.87 114.92C660 106.19 654.25 93.7101 638.52 80.0001C608.75 54.1501 508.94 36.4501 480 40.3801C451.06 44.3101 506.27 56.4701 506.27 56.4701H501.9C417.75 47.5501 333.08 46.4001 249.07 48.1401C228 48.5701 206.87 49.2701 186.24 52.8201C180.31 53.8201 173.93 55.4101 170.39 60.2001C154.75 81.4301 218.9 83.5001 229 83.0901C184.93 88.8201 136 90.5801 95 107.61C89.2901 109.98 83.62 112.8 79.31 117.19C75 121.58 72.2 127.83 73.17 134.1C76 152.29 101 157.69 115.24 161.73C115.24 161.73 33.5201 216.07 43.1501 243.65C47.5241 256.749 54.6541 268.759 64.06 278.87C57.8172 286.547 52.4319 294.883 48 303.73C45.39 309.07 42 316.38 44.89 322.53C59.77 353.85 285.5 461.39 466.38 430.69C514.43 422.54 562.29 409.06 604.38 385.22C646.3 361.49 689.02 322.29 699.58 272.87C699.93 271.24 700.18 269.66 700.36 268.12C707 245.35 710.78 215.34 704.18 191.6Z" fill="#3E57E1"/>
<path opacity="0.8" d="M704.18 191.6C696.3 163.22 643.77 194.09 643.77 194.09L657.52 169.15C659.183 166.643 660.638 164.004 661.87 161.26C668.78 145.82 668.69 129.26 661.87 114.92C660 106.19 654.25 93.7101 638.52 80.0001C608.75 54.1501 508.94 36.4501 480 40.3801C451.06 44.3101 506.27 56.4701 506.27 56.4701H501.9C417.75 47.5501 333.08 46.4001 249.07 48.1401C228 48.5701 206.87 49.2701 186.24 52.8201C180.31 53.8201 173.93 55.4101 170.39 60.2001C154.75 81.4301 218.9 83.5001 229 83.0901C184.93 88.8201 136 90.5801 95.0001 107.61C89.2901 109.98 83.6201 112.8 79.3101 117.19C75.0001 121.58 73.3101 127.75 73.1701 134.1C72.7701 150.87 99.7301 157.1 115.28 161.73C115.28 161.73 33.5601 216.07 43.1901 243.65C47.5641 256.749 54.6942 268.759 64.1001 278.87C57.8433 286.545 52.4445 294.881 48.0001 303.73C45.3901 309.07 42.0001 316.38 44.8901 322.53C59.7701 353.85 285.5 461.39 466.38 430.69C514.43 422.54 562.29 409.06 604.38 385.22C646.3 361.49 689.02 322.29 699.58 272.87C699.93 271.24 700.18 269.66 700.36 268.12C707 245.35 710.78 215.34 704.18 191.6Z" fill="white"/>
<path d="M575.46 161.92L574.97 161.47C574.91 161.42 568.97 156.05 564.18 157C559.39 157.95 558.47 160.64 558.43 160.76L557.48 160.44C557.48 160.3 558.66 157.09 563.98 156.02C568.49 155.12 573.58 159.02 575.16 160.31C576.16 158.4 579.72 152.4 583.41 151.94C587.66 151.41 592.26 154.94 592.41 155.1L591.8 155.89C591.75 155.89 587.31 152.45 583.49 152.89C579.67 153.33 575.75 161.21 575.71 161.29L575.46 161.92Z" fill="#263238"/>
<path d="M562.19 181.31L561.7 180.86C561.64 180.81 555.7 175.43 550.91 176.39C546.12 177.35 545.21 180.03 545.17 180.14L544.22 179.82C544.22 179.69 545.39 176.48 550.72 175.41C555.22 174.51 560.31 178.41 561.89 179.7C562.89 177.79 566.45 171.78 570.14 171.32C574.4 170.8 578.99 174.32 579.14 174.49L578.53 175.28C578.53 175.28 574.05 171.83 570.23 172.28C566.41 172.73 562.49 180.6 562.45 180.68L562.19 181.31Z" fill="#263238"/>
<path d="M606.52 181.31L606.03 180.86C606.03 180.86 601.52 176.77 597.92 177.49C594.32 178.21 593.67 180.18 593.64 180.27L592.69 179.95C592.69 179.84 593.61 177.33 597.69 176.51C601.05 175.84 604.85 178.61 606.18 179.71C607.05 178.12 609.7 173.71 612.48 173.39C615.76 172.99 619.3 175.71 619.48 175.83L618.87 176.62C618.87 176.62 615.51 174.02 612.63 174.39C610.31 174.68 607.63 179.05 606.81 180.72L606.52 181.31Z" fill="#263238"/>
<path d="M658.67 201.72L658.18 201.27C658.18 201.27 655.27 198.65 653.01 199.1C650.75 199.55 650.35 200.76 650.33 200.81L649.33 200.49C649.33 200.42 649.97 198.68 652.77 198.12C654.92 197.69 657.31 199.32 658.32 200.12C658.99 198.92 660.66 196.3 662.48 196.12C664.68 195.83 667.08 197.67 667.18 197.75L666.57 198.54C666.57 198.54 664.39 196.88 662.57 197.11C661.12 197.29 659.42 200.11 658.88 201.17L658.67 201.72Z" fill="#263238"/>
<path d="M412.17 178.569H212.43L212.97 177.789C213.19 177.469 218.36 170.119 224.87 170.709C225.94 170.809 226.96 170.919 227.87 171.029C232.48 171.539 235.81 171.909 237.54 169.749C238.18 168.752 238.527 167.594 238.54 166.409C238.83 164.079 239.15 161.409 243.45 159.869C246 158.939 248.65 159.649 251.21 160.339C253.95 161.079 256.54 161.779 258.82 160.479C261.1 159.179 261.51 156.569 261.93 153.809C262.088 151.902 262.636 150.047 263.54 148.359C266.29 144.089 272.29 141.809 276.59 141.809H276.67C279.57 141.809 282.17 143.159 284.67 144.429C287.53 145.889 290.24 147.269 293.25 146.749C294.19 146.515 295.059 146.058 295.783 145.415C296.508 144.773 297.066 143.964 297.41 143.059C298.346 140.752 299.033 138.352 299.46 135.899C300.34 131.689 301.17 127.709 305.18 124.019C309.791 119.986 315.516 117.445 321.6 116.729C346.16 113.249 373.29 131.519 378.54 155.079C378.54 155.269 379.66 159.839 383.77 159.839C385.203 159.701 386.61 159.365 387.95 158.839C393.03 157.159 400.7 154.609 406.5 163.539C413.89 174.909 412.42 178.049 412.23 178.369L412.17 178.569ZM214.4 177.569H411.52C411.67 176.679 411.67 173.149 405.75 164.039C400.37 155.769 393.42 158.039 388.35 159.749C386.913 160.325 385.401 160.692 383.86 160.839C378.94 160.839 377.67 155.359 377.65 155.299C372.51 132.209 345.91 114.299 321.83 117.719C315.948 118.396 310.409 120.837 305.94 124.719C302.18 128.189 301.38 132.009 300.53 136.059C300.091 138.581 299.384 141.048 298.42 143.419C298.018 144.482 297.359 145.429 296.503 146.176C295.646 146.923 294.618 147.446 293.51 147.699C290.17 148.269 287.19 146.699 284.3 145.279C281.9 144.059 279.41 142.789 276.75 142.769H276.67C272.58 142.769 266.93 145.039 264.46 148.859C263.629 150.455 263.132 152.204 263 153.999C262.56 156.869 262.1 159.839 259.39 161.379C256.68 162.919 253.84 162.109 251.03 161.379C248.62 160.729 246.12 160.059 243.87 160.879C240.15 162.229 239.87 164.349 239.62 166.599C239.577 167.975 239.144 169.311 238.37 170.449C236.3 173.039 232.55 172.619 227.81 172.089C226.81 171.979 225.81 171.869 224.81 171.779C220.05 171.269 215.9 175.719 214.4 177.569Z" fill="#263238"/>
<path d="M447.25 126.83H366.37L366.91 126.04C367 125.91 369.17 122.82 371.91 123.04L373.14 123.17C375.07 123.39 376.19 123.47 376.75 122.77C376.978 122.415 377.1 122.002 377.1 121.58C377.103 120.931 377.316 120.301 377.707 119.783C378.098 119.266 378.646 118.889 379.27 118.71C380.358 118.423 381.509 118.486 382.56 118.89C383.456 119.286 384.471 119.318 385.39 118.98C386.18 118.52 386.32 117.59 386.49 116.52C386.553 115.709 386.788 114.922 387.18 114.21C387.824 113.364 388.652 112.675 389.601 112.197C390.551 111.719 391.597 111.463 392.66 111.45C393.843 111.54 394.988 111.91 396 112.53C396.96 113.175 398.104 113.491 399.26 113.43C399.588 113.344 399.89 113.181 400.142 112.955C400.394 112.729 400.589 112.446 400.71 112.13C401.072 111.219 401.341 110.274 401.51 109.31C401.719 107.444 402.563 105.707 403.9 104.39C405.795 102.731 408.149 101.685 410.65 101.39C420.65 99.9695 431.65 107.39 433.82 117.01C433.82 117.08 434.23 118.68 435.63 118.68C436.172 118.617 436.703 118.482 437.21 118.28C439.34 117.58 442.54 116.51 445 120.28C447.93 124.79 447.5 126.22 447.3 126.55L447.25 126.83ZM368.39 125.83H446.54C446.54 125.3 446.21 123.83 444.25 120.83C442.29 117.83 439.67 118.55 437.62 119.23C437.012 119.472 436.372 119.623 435.72 119.68C435.044 119.643 434.401 119.379 433.895 118.93C433.388 118.482 433.048 117.875 432.93 117.21C430.93 108.1 420.38 101.03 410.88 102.38C408.577 102.651 406.41 103.609 404.66 105.13C403.475 106.305 402.739 107.858 402.58 109.52C402.397 110.546 402.109 111.552 401.72 112.52C401.537 112.991 401.24 113.41 400.856 113.74C400.473 114.069 400.014 114.299 399.52 114.41C398.151 114.521 396.784 114.169 395.64 113.41C394.762 112.861 393.77 112.519 392.74 112.41C391.837 112.409 390.947 112.617 390.137 113.016C389.327 113.414 388.62 113.994 388.07 114.71C387.763 115.307 387.579 115.96 387.53 116.63C387.35 117.79 387.14 119.11 385.93 119.8C384.72 120.49 383.54 120.14 382.35 119.8C381.494 119.463 380.557 119.39 379.66 119.59C379.218 119.701 378.827 119.96 378.553 120.324C378.278 120.687 378.136 121.134 378.15 121.59C378.13 122.197 377.932 122.784 377.58 123.28C376.65 124.45 375.07 124.28 373.08 124.05L371.87 123.93C370.44 123.93 369.13 125 368.39 125.83Z" fill="#263238"/>
<path d="M617.15 243.279H536.27L536.82 242.499C536.91 242.369 539.08 239.269 541.82 239.499L543.05 239.629C544.98 239.839 546.05 239.929 546.66 239.229C546.887 238.873 547.012 238.462 547.02 238.039C547.022 237.392 547.234 236.763 547.623 236.245C548.012 235.728 548.558 235.351 549.18 235.169C550.268 234.877 551.42 234.941 552.47 235.349C553.366 235.748 554.383 235.777 555.3 235.429C556.09 234.979 556.23 234.049 556.4 232.969C556.467 232.163 556.702 231.38 557.09 230.669C557.738 229.818 558.573 229.127 559.529 228.648C560.486 228.17 561.54 227.917 562.61 227.909C563.811 227.998 564.973 228.372 566 228.999C566.962 229.642 568.105 229.957 569.26 229.899C569.586 229.813 569.887 229.65 570.137 229.424C570.388 229.198 570.581 228.915 570.7 228.599C571.066 227.69 571.334 226.745 571.5 225.779C571.709 223.914 572.553 222.177 573.89 220.859C575.783 219.197 578.137 218.15 580.64 217.859C590.64 216.439 601.64 223.859 603.81 233.469C603.81 233.549 604.22 235.149 605.62 235.149C606.161 235.083 606.692 234.949 607.2 234.749C609.33 234.039 612.54 232.979 614.99 236.749C617.92 241.249 617.49 242.689 617.3 243.019L617.15 243.279ZM538.29 242.279H616.44C616.44 241.759 616.11 240.329 614.15 237.279C612.19 234.229 609.57 234.999 607.52 235.679C606.912 235.922 606.272 236.073 605.62 236.129C604.948 236.091 604.308 235.827 603.804 235.381C603.3 234.935 602.96 234.332 602.84 233.669C600.84 224.549 590.3 217.469 580.78 218.829C578.477 219.093 576.309 220.048 574.56 221.569C573.382 222.749 572.647 224.3 572.48 225.959C572.298 226.986 572.01 227.992 571.62 228.959C571.439 229.431 571.145 229.852 570.763 230.183C570.381 230.514 569.923 230.747 569.43 230.859C568.059 230.961 566.692 230.61 565.54 229.859C564.666 229.3 563.672 228.958 562.64 228.859C561.744 228.872 560.862 229.085 560.059 229.483C559.256 229.881 558.553 230.454 558 231.159C557.693 231.757 557.509 232.409 557.46 233.079C557.28 234.239 557.07 235.559 555.87 236.249C554.67 236.939 553.47 236.589 552.28 236.249C551.426 235.907 550.487 235.834 549.59 236.039C549.139 236.152 548.742 236.419 548.467 236.793C548.191 237.167 548.054 237.625 548.08 238.089C548.056 238.694 547.862 239.28 547.52 239.779C546.58 240.949 545 240.779 543.01 240.549C542.63 240.549 542.22 240.459 541.8 240.429C540.34 240.389 539 241.489 538.29 242.279Z" fill="#263238"/>
<path d="M496.6 237.76H373.38L373.93 236.98C374.06 236.78 377.29 232.17 381.41 232.55L383.29 232.74C386.06 233.05 388.07 233.28 389.06 232.03C389.444 231.432 389.652 230.739 389.66 230.03C389.647 229.085 389.948 228.162 390.516 227.407C391.085 226.652 391.888 226.108 392.8 225.86C394.42 225.27 396.08 225.71 397.68 226.14C399.28 226.57 400.88 227.01 402.21 226.24C403.54 225.47 403.78 223.93 404.03 222.29C404.125 221.09 404.465 219.922 405.03 218.86C406.75 216.18 410.52 214.75 413.21 214.75C414.98 214.899 416.691 215.457 418.21 216.38C419.95 217.26 421.58 218.09 423.37 217.79C423.916 217.65 424.42 217.381 424.84 217.005C425.259 216.629 425.582 216.157 425.78 215.63C426.347 214.224 426.766 212.762 427.03 211.27C427.58 208.65 428.09 206.18 430.6 203.87C433.464 201.364 437.02 199.785 440.8 199.34C455.97 197.19 472.75 208.48 476 223.05C476.06 223.33 476.72 225.83 479 225.83C479.862 225.737 480.706 225.525 481.51 225.2C484.69 224.15 489.51 222.55 493.13 228.2C497.65 235.14 496.86 237.2 496.66 237.52L496.6 237.76ZM375.37 236.76H495.93C495.93 236.09 495.73 233.89 492.38 228.76C489.16 223.76 485.14 225.13 481.92 226.2C481.014 226.56 480.061 226.789 479.09 226.88C476.6 226.88 475.4 224.65 475.09 223.33C471.95 209.24 455.71 198.33 441.01 200.39C437.431 200.804 434.062 202.297 431.35 204.67C429.08 206.75 428.61 208.97 428.08 211.53C427.805 213.092 427.366 214.62 426.77 216.09C426.51 216.772 426.086 217.379 425.534 217.857C424.983 218.335 424.322 218.669 423.61 218.83C421.49 219.19 419.61 218.25 417.83 217.33C416.447 216.478 414.887 215.958 413.27 215.81C410.8 215.81 407.38 217.15 405.89 219.46C405.401 220.391 405.105 221.411 405.02 222.46C404.74 224.27 404.45 226.14 402.71 227.13C400.97 228.12 399.19 227.61 397.42 227.13C395.9 226.72 394.47 226.33 393.14 226.82C390.96 227.61 390.82 228.82 390.65 230.17C390.626 231.054 390.345 231.913 389.84 232.64C388.5 234.31 386.15 234.05 383.18 233.72L381.32 233.52C378.74 233.3 376.44 235.53 375.37 236.76Z" fill="#263238"/>
<path d="M504.27 390.9C504.27 390.9 496.98 383.35 499.02 383.57C501.06 383.79 504.9 389.45 504.9 389.45C504.9 389.45 504.95 377 506.77 379.72C508.59 382.44 506.36 389.5 506.36 389.5C506.36 389.5 511.56 381.39 511.55 382.71C511.55 386.81 507.55 390.02 507.55 390.02C507.55 390.02 515.88 383.85 514.55 386.35C513.22 388.85 507.86 391.22 507.86 391.22C507.86 391.22 517.46 389.28 514.05 390.65C510.64 392.02 507.4 392.95 507.4 392.95H504.74C504.74 392.95 495.68 388.4 499.09 389.08C500.905 389.399 502.654 390.014 504.27 390.9Z" fill="#263238"/>
<path d="M600.56 367.259C600.56 367.259 594.88 361.379 596.48 361.559C598.08 361.739 601.05 366.129 601.05 366.129C601.05 366.129 601.05 356.439 602.51 358.559C603.97 360.679 602.18 366.169 602.18 366.169C602.18 366.169 606.23 359.859 606.18 360.889C606.18 364.079 603.06 366.579 603.06 366.579C603.06 366.579 609.54 361.769 608.48 363.719C607.42 365.669 603.28 367.509 603.28 367.509C603.28 367.509 610.75 365.999 608.09 367.059C605.43 368.119 602.91 368.849 602.91 368.849H600.85C600.85 368.849 593.79 365.309 596.45 365.849C597.888 366.091 599.277 366.567 600.56 367.259Z" fill="#263238"/>
<path d="M690 346.169C690 346.169 684.33 340.289 685.92 340.469C687.51 340.649 690.49 345.039 690.49 345.039C690.49 345.039 690.49 335.349 691.95 337.469C693.41 339.589 691.63 345.079 691.63 345.079C691.63 345.079 695.63 338.769 695.63 339.799C695.63 342.989 692.51 345.489 692.51 345.489C692.51 345.489 698.99 340.689 697.93 342.629C696.87 344.569 692.72 346.419 692.72 346.419C692.72 346.419 700.19 344.909 697.54 345.969C694.89 347.029 692.36 347.759 692.36 347.759H690.29C690.29 347.759 683.29 344.219 685.89 344.759C687.329 344.998 688.717 345.475 690 346.169Z" fill="#263238"/>
<path d="M576 394.34C576 394.34 569.22 387.34 571.13 387.53C573.04 387.72 576.59 392.99 576.59 392.99C576.59 392.99 576.59 381.42 578.33 383.99C580.07 386.56 578 393 578 393C578 393 582.84 385.46 582.83 386.69C582.83 390.5 579.1 393.48 579.1 393.48C579.1 393.48 586.84 387.75 585.57 390.07C584.3 392.39 579.36 394.6 579.36 394.6C579.36 394.6 588.28 392.8 585.11 394.07C581.94 395.34 578.92 396.2 578.92 396.2H576.46C576.46 396.2 568.03 391.98 571.2 392.61C572.883 392.925 574.503 393.509 576 394.34Z" fill="#3E57E1"/>
<path d="M441.52 364.21L381.87 297.33L368.68 307.88L302.82 208.73L245.56 221.49L228.4 189.44L211.75 188.56L180.4 126.72L133.52 169.5L110.81 161.39L28.22 245.59L27.51 244.89L110.54 160.23L133.29 168.36L180.7 125.1L212.38 187.59L229.01 188.47L246.08 220.35L303.28 207.61L303.47 207.89L368.91 306.42L381.98 295.96L442.27 363.54L441.52 364.21Z" fill="#263238"/>
<path d="M447.224 369.118L446.478 369.783L452.768 376.836L453.515 376.17L447.224 369.118Z" fill="#263238"/>
<path d="M214.967 228.643L210.007 229.989L210.268 230.954L215.229 229.608L214.967 228.643Z" fill="#263238"/>
<path d="M245.578 220.348L220.553 227.138L220.815 228.103L245.84 221.313L245.578 220.348Z" fill="#263238"/>
<path d="M151.68 192.349L150.85 191.789L164.76 171.259L163.82 164.199L163.88 164.059L179.97 131.409L180.87 131.849L164.85 164.369L165.8 171.499L151.68 192.349Z" fill="#263238"/>
<path d="M148.511 195.238L144.997 200.431L145.825 200.991L149.339 195.799L148.511 195.238Z" fill="#263238"/>
<path d="M123.26 212.648L100.521 243.468L101.326 244.061L124.065 213.242L123.26 212.648Z" fill="#263238"/>
<path d="M126.15 210.42L125.34 209.83L128.35 205.75L129.74 187.69L117.08 177.37L111.35 164.49L112.26 164.08L117.89 176.75L130.78 187.25L129.33 206.11L126.15 210.42Z" fill="#263238"/>
<path d="M216.75 201.04L212.17 193.41L213.03 192.89L216.97 199.46L228.36 188.59L229.05 189.31L216.75 201.04Z" fill="#263238"/>
<path d="M447.72 361L447.07 360.24L464.51 345.29L498.93 352.67L552.36 277.87L552.71 277.99L586.86 289.38L614.87 249.84L615.28 250.12L707.3 315.03L706.72 315.85L615.11 251.23L587.25 290.56L552.74 279.06L499.37 353.79L464.78 346.38L447.72 361Z" fill="#263238"/>
<path d="M604.4 299.32L590.95 293.44L591.35 292.52L603.7 297.92L614.5 250.42L615.48 250.64L604.4 299.32Z" fill="#263238"/>
<path d="M526.17 360.47L507.2 357.18L507.37 356.19L525.5 359.34L552.37 281.13L553.32 281.45L526.17 360.47Z" fill="#263238"/>
<path d="M551.6 275.669C545.926 275.65 540.303 276.748 535.053 278.901C529.803 281.054 525.028 284.221 521.002 288.219C516.976 292.218 513.776 296.97 511.587 302.205C509.397 307.44 508.26 313.055 508.24 318.729C508.221 329.329 512.141 339.558 519.24 347.429C524.343 346.704 529.544 347.18 534.43 348.819C539.886 350.638 544.905 353.57 549.17 357.429H553.06C557.329 353.571 562.351 350.64 567.81 348.819C572.957 347.084 578.455 346.651 583.81 347.559C591.007 339.682 594.999 329.399 595 318.729C594.979 313.052 593.84 307.434 591.647 302.197C589.454 296.96 586.251 292.207 582.221 288.208C578.191 284.209 573.412 281.044 568.158 278.892C562.904 276.741 557.277 275.646 551.6 275.669Z" fill="#3E57E1"/>
<path d="M571.78 336C570.447 336.667 569.113 337.333 567.78 338C566.474 338.708 565.208 339.489 563.99 340.34C563.54 340.65 563.1 340.98 562.65 341.34L569.76 328.11L560.01 343.37C559.01 344.17 558.01 344.98 557.1 345.81C555.533 347.143 554 348.543 552.5 350.01L552 335.66L562.2 320.13L552 333.45L551.55 320.61L550.79 335L550.06 349.4C548.75 348.17 547.43 346.97 546.06 345.79C544.99 344.86 543.9 343.94 542.79 343.06L533.57 327.31L540.34 341.2C539.95 340.92 539.57 340.63 539.17 340.36C537.952 339.509 536.687 338.728 535.38 338.02C534.08 337.33 532.75 336.66 531.38 336.02C528.711 334.716 525.974 333.558 523.18 332.55C525.885 333.738 528.522 335.073 531.08 336.55C532.36 337.27 533.62 338.01 534.86 338.77C536.078 339.533 537.25 340.368 538.37 341.27C540.6 343.054 542.727 344.964 544.74 346.99C546.5 348.74 548.22 350.56 549.86 352.39L549 370.61H553.27L552.66 353.07C554.49 350.97 556.44 348.91 558.44 346.92C560.453 344.894 562.58 342.984 564.81 341.2C565.93 340.298 567.102 339.463 568.32 338.7C569.56 337.94 570.82 337.2 572.1 336.48C574.662 335.003 577.302 333.668 580.01 332.48C577.204 333.501 574.457 334.677 571.78 336Z" fill="#263238"/>
<path d="M218.71 334.76C218.71 347.13 211.77 348.06 203.21 348.06C194.65 348.06 187.71 347.13 187.71 334.76C187.71 322.39 194.65 296.52 203.21 296.52C211.77 296.52 218.71 322.38 218.71 334.76Z" fill="#3E57E1"/>
<path d="M208.45 340.37L205.89 340.55L212.56 336.05L207.8 338.46L208.45 336.57L206.27 339.23L203.71 340.52L203.51 331.64L204.87 328.35L203.48 330.2L203.36 325.05L207.61 319.38L203.33 323.76L203.07 312.42L202.84 319.68L200.12 316.64L202.8 321.07L202.44 332.57L200.06 331.02L197.9 327.19L198.77 330.17L194.53 327.4L202.39 334.18L201.2 371.91H204.43L203.75 341.99L204.5 341.49L208.45 340.37Z" fill="#263238"/>
<path d="M635.52 292.15C635.52 316.32 621.96 318.15 605.24 318.15C588.52 318.15 574.96 316.32 574.96 292.15C574.96 267.98 588.51 217.43 605.24 217.43C621.97 217.43 635.52 268 635.52 292.15Z" fill="#3E57E1"/>
<path opacity="0.31" d="M635.52 292.15C635.52 316.32 621.96 318.15 605.24 318.15C588.52 318.15 574.96 316.32 574.96 292.15C574.96 267.98 588.51 217.43 605.24 217.43C621.97 217.43 635.52 268 635.52 292.15Z" fill="white"/>
<path d="M615.48 303.12L610.47 303.46L623.51 294.67L614.2 299.38L615.48 295.7L611.22 300.88L606.22 303.41L605.82 286.05L608.47 279.62L605.76 283.24L605.53 273.17L613.83 262.11L605.47 270.66L604.96 248.5L604.52 262.69L599.19 256.75L604.43 265.41L603.72 287.87L599.09 284.84L594.87 277.36L596.56 283.19L588.27 277.77L603.62 291.01L601.3 364.74H607.62L606.28 306.28L607.75 305.3L615.48 303.12Z" fill="#263238"/>
<path d="M700.34 301.66C700.34 314.04 693.4 314.97 684.84 314.97C676.28 314.97 669.34 314.04 669.34 301.66C669.34 289.28 676.28 263.43 684.84 263.43C693.4 263.43 700.34 289.29 700.34 301.66Z" fill="#3E57E1"/>
<path opacity="0.5" d="M700.34 301.66C700.34 314.04 693.4 314.97 684.84 314.97C676.28 314.97 669.34 314.04 669.34 301.66C669.34 289.28 676.28 263.43 684.84 263.43C693.4 263.43 700.34 289.29 700.34 301.66Z" fill="white"/>
<path d="M690.08 307.28L687.52 307.45L694.19 302.95L689.42 305.36L690.08 303.48L687.9 306.13L685.34 307.43L685.14 298.54L686.49 295.25L685.11 297.1L684.99 291.95L689.24 286.29L684.96 290.67L684.7 279.33L684.47 286.58L681.75 283.55L684.43 287.98L684.06 299.48L681.69 297.92L679.53 294.09L680.4 297.08L676.16 294.3L684.01 301.08L682.82 338.81H686.06L685.38 308.9L686.12 308.39L690.08 307.28Z" fill="#263238"/>
<path d="M68.67 291.2C68.67 303.57 61.73 304.51 53.17 304.51C44.61 304.51 37.67 303.57 37.67 291.2C37.67 278.83 44.61 253 53.17 253C61.73 253 68.67 278.83 68.67 291.2Z" fill="#3E57E1"/>
<path opacity="0.5" d="M68.67 291.2C68.67 303.57 61.73 304.51 53.17 304.51C44.61 304.51 37.67 303.57 37.67 291.2C37.67 278.83 44.61 253 53.17 253C61.73 253 68.67 278.83 68.67 291.2Z" fill="white"/>
<path d="M58.41 296.81L55.85 296.99L62.52 292.49L57.75 294.9L58.41 293.02L56.23 295.67L53.67 296.96L53.47 288.08L54.82 284.79L53.44 286.64L53.32 281.49L57.56 275.83L53.29 280.2L53.03 268.87L52.8 276.12L50.08 273.08L52.76 277.52L52.4 289.01L50.02 287.46L47.86 283.63L48.73 286.62L44.49 283.84L52.34 290.62L51.15 328.35H54.39L53.71 298.43L54.45 297.93L58.41 296.81Z" fill="#263238"/>
<path d="M145.46 263.139C139.786 263.12 134.163 264.218 128.913 266.371C123.663 268.524 118.888 271.69 114.862 275.689C110.836 279.687 107.636 284.44 105.447 289.675C103.257 294.91 102.12 300.525 102.1 306.199C102.081 316.802 106.002 327.033 113.1 334.909C118.202 334.179 123.403 334.652 128.29 336.289C133.746 338.108 138.765 341.04 143.03 344.899H147C151.269 341.041 156.291 338.11 161.75 336.289C166.899 334.564 172.394 334.132 177.75 335.029C184.933 327.147 188.91 316.864 188.9 306.199C188.879 300.518 187.738 294.897 185.543 289.658C183.348 284.418 180.142 279.663 176.107 275.664C172.072 271.664 167.289 268.5 162.03 266.351C156.772 264.202 151.141 263.11 145.46 263.139Z" fill="#3E57E1"/>
<path opacity="0.33" d="M145.46 263.139C139.786 263.12 134.163 264.218 128.913 266.371C123.663 268.524 118.888 271.69 114.862 275.689C110.836 279.687 107.636 284.44 105.447 289.675C103.257 294.91 102.12 300.525 102.1 306.199C102.081 316.802 106.002 327.033 113.1 334.909C118.202 334.179 123.403 334.652 128.29 336.289C133.746 338.108 138.765 341.04 143.03 344.899H147C151.269 341.041 156.291 338.11 161.75 336.289C166.899 334.564 172.394 334.132 177.75 335.029C184.933 327.147 188.91 316.864 188.9 306.199C188.879 300.518 187.738 294.897 185.543 289.658C183.348 284.418 180.142 279.663 176.107 275.664C172.072 271.664 167.289 268.5 162.03 266.351C156.772 264.202 151.141 263.11 145.46 263.139Z" fill="white"/>
<path d="M165.64 323.48C164.307 324.147 162.973 324.813 161.64 325.48C160.331 326.18 159.066 326.959 157.85 327.81L156.51 328.81L163.62 315.57L153.87 330.84C152.877 331.633 151.907 332.443 150.96 333.27C149.39 334.64 147.86 336.03 146.36 337.47L145.86 323.12L156.06 307.59L145.79 320.95L145.34 308.1L144.61 322.47L143.88 336.88C142.57 335.64 141.25 334.44 139.88 333.26C138.813 332.333 137.723 331.423 136.61 330.53L127.39 314.78L134.16 328.68C133.77 328.39 133.39 328.11 132.99 327.83C131.774 326.979 130.509 326.2 129.2 325.5C127.9 324.8 126.57 324.13 125.2 323.5C122.531 322.196 119.794 321.038 117 320.03C119.74 321.2 122.411 322.526 125 324C126.28 324.72 127.54 325.463 128.78 326.23C129.998 326.99 131.17 327.821 132.29 328.72C134.518 330.507 136.644 332.417 138.66 334.44C140.42 336.19 142.14 338.01 143.78 339.85L142.85 358.13H147.12L146.51 340.59C148.34 338.49 150.29 336.43 152.29 334.44C154.306 332.417 156.432 330.507 158.66 328.72C159.78 327.821 160.952 326.99 162.17 326.23C163.39 325.41 164.647 324.667 165.94 324C168.501 322.539 171.142 321.224 173.85 320.06C171.053 321.049 168.312 322.191 165.64 323.48Z" fill="#263238"/>
<path d="M265.84 391.651V352.001H214.19V326.601L258.49 221.601H296.28V327.201H312.65V352.001H296.28V391.681L265.84 391.651ZM239.84 327.201H265.84V255.001L239.84 327.201Z" fill="#263238"/>
<path d="M373.53 391.74C363.31 391.74 354.843 389.64 348.13 385.44C341.466 381.312 336.195 375.278 333 368.12C329.667 360.787 328 352.287 328 342.62V266.41C328 256.477 329.607 247.767 332.82 240.28C335.841 233.025 341.054 226.896 347.73 222.75C354.45 218.55 363.057 216.45 373.55 216.45C383.91 216.45 392.413 218.55 399.06 222.75C405.682 226.929 410.851 233.052 413.86 240.28C417.073 247.76 418.68 256.47 418.68 266.41V342.62C418.68 352.267 417.013 360.767 413.68 368.12C410.488 375.277 405.22 381.311 398.56 385.44C391.807 389.64 383.463 391.74 373.53 391.74ZM373.53 363.19C377.31 363.19 380.04 362 381.72 359.62C383.462 357.074 384.611 354.169 385.08 351.12C385.61 348.105 385.891 345.051 385.92 341.99V267C385.907 263.767 385.659 260.538 385.18 257.34C384.781 254.225 383.669 251.245 381.93 248.63C380.25 246.19 377.45 244.967 373.53 244.96C369.61 244.954 366.777 246.177 365.03 248.63C363.226 251.221 362.074 254.209 361.67 257.34C361.191 260.538 360.943 263.767 360.93 267V342C360.954 345.062 361.235 348.116 361.77 351.13C362.244 354.214 363.47 357.133 365.34 359.63C367.16 362.004 369.89 363.19 373.53 363.19Z" fill="#263238"/>
<path d="M487.94 391.651V352.001H436.3V326.601L480.59 221.601H518.38V327.201H534.75V352.001H518.38V391.681L487.94 391.651ZM461.94 327.201H487.94V255.001L461.94 327.201Z" fill="#263238"/>
<path d="M720.11 309.64C654.73 352.5 525.61 381.64 377.01 381.64C223.85 381.64 91.3799 350.64 28.0699 305.64V478H720.07L720.11 309.64Z" fill="white"/>
<path d="M377 382.17C302.95 382.17 230.93 374.86 168.73 361.03C108.15 347.57 59.41 328.56 27.73 306.03L28.31 305.22C59.84 327.64 108.45 346.59 168.91 360.03C231.09 373.87 303 381.17 377 381.17C511.14 381.17 634 357.46 705.65 317.75L706.14 318.63C634.36 358.41 511.32 382.17 377 382.17Z" fill="#263238"/>
<path d="M711.44 315.609L710.93 314.749C714.11 312.879 717.21 310.949 720.14 309.029L720.69 309.859C717.74 311.799 714.63 313.729 711.44 315.609Z" fill="#263238"/>
<path d="M678.37 299.65C678.37 324.93 664.19 326.84 646.71 326.84C629.23 326.84 615 324.93 615 299.65C615 274.37 629.18 221.53 646.67 221.53C664.16 221.53 678.37 274.37 678.37 299.65Z" fill="#3E57E1"/>
<path d="M657.41 311.12L652.17 311.48L665.82 302.29L656.07 307.21L657.41 303.37L652.96 308.79L647.73 311.43L647.32 293.27L650.09 286.56L647.25 290.33L647.01 279.81L655.69 268.24L646.95 277.18L646.42 254.01L645.95 268.84L640.39 262.63L645.86 271.69L645.12 295.18L640.28 292.01L635.86 284.19L637.63 290.28L628.97 284.62L645.02 298.46L642.59 375.56H649.2L647.8 314.43L649.33 313.4L657.41 311.12Z" fill="#263238"/>
<path d="M644.57 376.24C644.57 376.24 632.89 364.13 636.17 364.49C639.45 364.85 645.58 373.91 645.58 373.91C645.58 373.91 645.67 353.91 648.58 358.32C651.49 362.73 647.91 374 647.91 374C647.91 374 656.24 361 656.23 363.12C656.17 369.69 649.8 374.83 649.8 374.83C649.8 374.83 663.16 364.94 661 369C658.84 373.06 650.28 376.8 650.28 376.8C650.28 376.8 665.67 373.69 660.2 375.88C654.73 378.07 649.53 379.57 649.53 379.57H645.28C645.28 379.57 630.75 372.28 636.22 373.37C639.142 373.859 641.964 374.829 644.57 376.24Z" fill="#263238"/>
<path d="M84.73 361.2C84.73 361.2 74.62 350.73 77.45 351.05C80.28 351.37 85.6 359.19 85.6 359.19C85.6 359.19 85.67 341.93 88.2 345.71C90.73 349.49 87.62 359.26 87.62 359.26C87.62 359.26 94.83 348.02 94.81 349.85C94.81 355.54 89.26 359.98 89.26 359.98C89.26 359.98 100.8 351.43 98.91 354.9C97.02 358.37 89.64 361.64 89.64 361.64C89.64 361.64 102.95 358.96 98.22 360.85C93.49 362.74 89 364 89 364H85.31C85.31 364 72.75 357.7 77.47 358.64C80.0131 359.093 82.4653 359.958 84.73 361.2Z" fill="#263238"/>
<path d="M121.26 285.87C121.26 311.18 107.07 313.09 89.56 313.09C72.05 313.09 57.86 311.18 57.86 285.87C57.86 260.56 72.06 207.66 89.56 207.66C107.06 207.66 121.26 260.56 121.26 285.87Z" fill="#3E57E1"/>
<path d="M100.28 297.35L95.04 297.71L108.69 288.51L98.94 293.44L100.28 289.59L95.82 295.02L90.59 297.66L90.18 279.49L92.95 272.76L90.11 276.54L89.87 266L98.56 254.42L89.81 263.38L89.28 240.18L88.81 255.03L83.24 248.81L88.72 257.88L87.98 281.39L83.13 278.22L78.71 270.39L80.48 276.49L71.8 270.82L87.88 284.68L85.44 361.86H92.06L90.66 300.67L92.19 299.64L100.28 297.35Z" fill="#263238"/>
<path d="M195.39 387.51C195.39 387.51 185.28 377.04 188.12 377.36C190.96 377.68 196.27 385.5 196.27 385.5C196.27 385.5 196.34 368.24 198.86 372.02C201.38 375.8 198.28 385.57 198.28 385.57C198.28 385.57 205.49 374.33 205.48 376.16C205.48 381.85 199.92 386.29 199.92 386.29C199.92 386.29 211.47 377.74 209.58 381.21C207.69 384.68 200.3 388 200.3 388C200.3 388 213.61 385.32 208.88 387.21C204.15 389.1 199.65 390.4 199.65 390.4H196C196 390.4 183.43 384.1 188.16 385.04C190.688 385.465 193.13 386.299 195.39 387.51Z" fill="#263238"/>
<path d="M249 410.46C249 410.46 238.89 399.99 241.73 400.31C244.57 400.63 249.88 408.45 249.88 408.45C249.88 408.45 249.95 391.19 252.47 394.97C254.99 398.75 251.89 408.52 251.89 408.52C251.89 408.52 259.1 397.28 259.09 399.12C259.04 404.8 253.53 409.24 253.53 409.24C253.53 409.24 265.08 400.69 263.19 404.16C261.3 407.63 254 410.9 254 410.9C254 410.9 267.31 408.22 262.58 410.11C257.85 412 253.35 413.3 253.35 413.3H249.68C249.68 413.3 237.11 407 241.84 407.94C244.347 408.388 246.765 409.239 249 410.46Z" fill="#263238"/>
<path d="M392.94 395.05C392.94 395.05 385.65 387.5 387.7 387.73C389.75 387.96 393.57 393.6 393.57 393.6C393.57 393.6 393.63 381.15 395.45 383.88C397.27 386.61 395.03 393.66 395.03 393.66C395.03 393.66 400.23 385.54 400.22 386.87C400.22 390.97 396.22 394.17 396.22 394.17C396.22 394.17 404.55 388 403.22 390.51C401.89 393.02 396.53 395.37 396.53 395.37C396.53 395.37 406.13 393.43 402.71 394.8C399.29 396.17 396.06 397.1 396.06 397.1H393.41C393.41 397.1 384.34 392.55 387.75 393.23C389.566 393.554 391.319 394.168 392.94 395.05Z" fill="#263238"/>
<path d="M676 376.999C676 376.999 670.33 371.119 671.92 371.299C673.51 371.479 676.49 375.869 676.49 375.869C676.49 375.869 676.49 366.179 677.95 368.299C679.41 370.419 677.62 375.909 677.62 375.909C677.62 375.909 681.62 369.599 681.62 370.629C681.62 373.819 678.5 376.309 678.5 376.309C678.5 376.309 684.98 371.509 683.92 373.459C682.86 375.409 678.72 377.239 678.72 377.239C678.72 377.239 686.19 375.739 683.53 376.799C680.87 377.859 678.35 378.589 678.35 378.589H676.3C676.3 378.589 669.24 375.049 671.9 375.589C673.335 375.829 674.721 376.305 676 376.999Z" fill="#263238"/>
<path d="M293.9 395.09C293.9 395.09 283.79 384.62 286.63 384.94C289.47 385.26 294.78 393.08 294.78 393.08C294.78 393.08 294.85 375.82 297.37 379.6C299.89 383.38 296.8 393.16 296.8 393.16C296.8 393.16 304.01 381.91 303.99 383.75C303.94 389.43 298.44 393.87 298.44 393.87C298.44 393.87 309.98 385.32 308.09 388.79C306.2 392.26 298.82 395.53 298.82 395.53C298.82 395.53 312.12 392.85 307.39 394.74C302.66 396.63 298.17 397.93 298.17 397.93H294.49C294.49 397.93 281.92 391.63 286.65 392.57C289.188 393.009 291.637 393.86 293.9 395.09Z" fill="#3E57E1"/>
<path d="M221 388.14C221 388.14 214.22 381.14 216.13 381.32C218.04 381.5 221.59 386.79 221.59 386.79C221.59 386.79 221.59 375.21 223.33 377.79C225.07 380.37 222.94 386.88 222.94 386.88C222.94 386.88 227.78 379.33 227.77 380.57C227.77 384.38 224.04 387.36 224.04 387.36C224.04 387.36 231.78 381.62 230.51 383.95C229.24 386.28 224.3 388.47 224.3 388.47C224.3 388.47 233.22 386.67 230.05 387.94C226.88 389.21 223.86 390.08 223.86 390.08H221.4C221.4 390.08 212.97 385.85 216.14 386.49C217.84 386.768 219.482 387.326 221 388.14Z" fill="#3E57E1"/>
<path d="M136.26 415.88C136.26 415.88 129.48 408.88 131.39 409.07C133.3 409.26 136.85 414.53 136.85 414.53C136.85 414.53 136.9 402.95 138.59 405.53C140.28 408.11 138.2 414.62 138.2 414.62C138.2 414.62 143 407 143 408.27C143 412.08 139.27 415.06 139.27 415.06C139.27 415.06 147.01 409.32 145.75 411.65C144.49 413.98 139.53 416.17 139.53 416.17C139.53 416.17 148.45 414.37 145.28 415.64C142.11 416.91 139.09 417.78 139.09 417.78H136.63C136.63 417.78 128.2 413.55 131.37 414.19C133.083 414.478 134.735 415.049 136.26 415.88Z" fill="#3E57E1"/>
<path d="M363 417.24C363 417.24 356.22 410.24 358.12 410.43C360.02 410.62 363.59 415.89 363.59 415.89C363.59 415.89 363.64 404.31 365.33 406.89C367.02 409.47 364.94 415.98 364.94 415.98C364.94 415.98 369.78 408.44 369.76 409.67C369.76 413.48 366.04 416.46 366.04 416.46C366.04 416.46 373.78 410.72 372.51 413.05C371.24 415.38 366.29 417.57 366.29 417.57C366.29 417.57 375.22 415.77 372.05 417.04C368.88 418.31 365.86 419.18 365.86 419.18H363.39C363.39 419.18 354.97 414.95 358.14 415.59C359.84 415.868 361.482 416.425 363 417.24Z" fill="#3E57E1"/>
<path d="M473 417.6C473 417.6 466.23 410.6 468.13 410.79C470.03 410.98 473.59 416.26 473.59 416.26C473.59 416.26 473.64 404.68 475.33 407.26C477.02 409.84 474.94 416.34 474.94 416.34C474.94 416.34 479.78 408.8 479.77 410.03C479.77 413.85 476.04 416.83 476.04 416.83C476.04 416.83 483.78 411.09 482.52 413.42C481.26 415.75 476.3 417.94 476.3 417.94C476.3 417.94 485.22 416.14 482.05 417.41C478.88 418.68 475.86 419.55 475.86 419.55H473.4C473.4 419.55 464.97 415.32 468.14 415.95C469.838 416.233 471.48 416.791 473 417.6Z" fill="#3E57E1"/>
<path d="M677.47 395.63C677.47 395.63 667.15 384.94 670.05 385.26C672.95 385.58 678.36 393.58 678.36 393.58C678.36 393.58 678.44 375.95 681.01 379.82C683.58 383.69 680.42 393.66 680.42 393.66C680.42 393.66 687.79 382.17 687.77 384.05C687.77 389.85 682.1 394.39 682.1 394.39C682.1 394.39 693.88 385.66 691.95 389.2C690.02 392.74 682.49 396.08 682.49 396.08C682.49 396.08 696.07 393.34 691.24 395.27C686.41 397.2 681.82 398.53 681.82 398.53H678.07C678.07 398.53 665.24 392.09 670.07 393.06C672.66 393.51 675.159 394.378 677.47 395.63Z" fill="#3E57E1"/>
<path d="M62.54 395.63C62.54 395.63 52.22 384.94 55.11 385.26C58 385.58 63.43 393.58 63.43 393.58C63.43 393.58 63.51 375.95 66.08 379.82C68.65 383.69 65.49 393.66 65.49 393.66C65.49 393.66 72.8499 382.17 72.8399 384.05C72.8399 389.85 67.17 394.39 67.17 394.39C67.17 394.39 79 385.66 77 389.2C75 392.74 67.53 396.08 67.53 396.08C67.53 396.08 81.12 393.34 76.29 395.27C71.46 397.2 66.87 398.53 66.87 398.53H63.14C63.14 398.53 50.31 392.09 55.14 393.06C57.7296 393.51 60.2288 394.378 62.54 395.63Z" fill="#3E57E1"/>
<path d="M113.45 380.54C113.45 380.54 102.89 362.32 105.9 360.92C108.91 359.52 115.14 373.37 115.14 373.37C115.14 373.37 113.93 347.26 116.74 349.67C119.55 352.08 122.16 370.56 122.16 370.56C122.16 370.56 127.79 350.47 129.6 354.69C131.41 358.91 128.15 371.69 128.15 371.69C128.15 371.69 136.22 356.32 137.03 361.34C137.84 366.36 133.21 374.59 133.21 374.59C133.21 374.59 143.85 363.95 144.66 368.17C145.47 372.39 141.85 376.6 141.85 376.6C141.85 376.6 155.9 368.97 152.49 373.19C149.08 377.41 144.06 382.83 144.06 382.83C144.06 382.83 157.51 378.01 155.9 380.83C154.29 383.65 148.27 386.65 148.27 386.65C148.27 386.65 159.27 384.65 158.11 386.45C156.985 387.86 155.633 389.074 154.11 390.04H104.11C104.11 390.04 90.8599 385.25 96.1099 384.85C99.5357 384.697 102.952 385.312 106.11 386.65C106.11 386.65 89.8399 375.65 97.4699 374.81C105.1 373.97 111.33 383.64 111.33 383.64C111.33 383.64 100.49 368.38 104.33 370.79L113.45 380.54Z" fill="#3E57E1"/>
<path d="M114.13 385.72C114.13 385.72 100.49 371.59 104.32 372.02C108.15 372.45 115.32 383.02 115.32 383.02C115.32 383.02 115.42 359.73 118.82 364.83C122.22 369.93 118 383.1 118 383.1C118 383.1 127.73 367.93 127.71 370.41C127.64 378.08 120.21 384.07 120.21 384.07C120.21 384.07 135.79 372.54 133.21 377.21C130.63 381.88 120.7 386.31 120.7 386.31C120.7 386.31 138.7 382.69 132.28 385.24C125.86 387.79 119.83 389.55 119.83 389.55H114.83C114.83 389.55 97.83 381.04 104.26 382.32C107.716 382.898 111.051 384.047 114.13 385.72Z" fill="#263238"/>
<path d="M120 390.05H114.8L114.69 389.99C101.95 383.6 102.3 382.59 102.44 382.17C102.66 381.53 103.55 381.65 104.44 381.83C106.974 382.32 109.452 383.06 111.84 384.04C108 379.93 102.46 373.59 103.24 372.04C103.347 371.843 103.516 371.689 103.721 371.6C103.925 371.511 104.154 371.493 104.37 371.55C107.59 371.91 112.75 378.6 114.82 381.48C114.9 376 115.33 364.34 117.61 363.66C118.17 363.49 118.71 363.8 119.23 364.57C121.71 368.29 120.39 375.87 119.36 380.16C126.48 369.3 127.36 369.58 127.77 369.69C127.924 369.74 128.055 369.842 128.141 369.979C128.227 370.116 128.262 370.279 128.24 370.44C128.03 374.164 126.627 377.723 124.24 380.59C128.65 377.53 132.84 375.03 133.75 375.83C134.31 376.32 133.85 377.16 133.67 377.48C132.01 380.53 127.44 383.41 124.25 385.14C133.84 383.33 134.02 383.91 134.15 384.34C134.33 384.95 133.6 385.29 132.48 385.74C126.16 388.27 120.05 390.04 119.99 390.06L120 390.05ZM115.09 389.05H119.86C120.53 388.85 126.03 387.22 131.86 384.93C129.48 385.2 125.04 385.93 120.94 386.8L116.77 387.64L117.38 388.28L113.95 386.14C110.947 384.518 107.702 383.394 104.34 382.81L103.95 382.74C107.492 385.082 111.183 387.189 115 389.05H115.09ZM104.18 372.51C104.18 373.79 109.46 380.11 114.54 385.37L116.68 387.59L120.6 385.85C120.7 385.85 130.43 381.45 132.87 376.97C132.941 376.852 133.001 376.728 133.05 376.6C131.59 376.84 125.62 380.74 120.59 384.47L119.98 383.68C120.05 383.63 126.85 378.05 127.27 370.98C125.8 372.46 121.89 378.08 118.5 383.37L116.5 386.55L117.64 382.95C117.64 382.82 121.71 369.95 118.48 365.1C118.16 364.61 117.99 364.59 117.99 364.59C116.9 364.79 115.94 373.22 115.9 383.01V384.62L114.99 383.29C112.99 380.4 107.31 372.84 104.36 372.51H104.18Z" fill="#263238"/>
<path d="M563.2 412.579C563.2 412.579 543.2 378.159 548.93 375.499C554.66 372.839 566.4 398.999 566.4 398.999C566.4 398.999 564.12 349.659 569.4 354.209C574.68 358.759 579.65 393.689 579.65 393.689C579.65 393.689 590.28 355.689 593.7 363.689C597.12 371.689 591 395.82 591 395.82C591 395.82 606.26 366.77 607.78 376.26C609.3 385.75 600.57 401.309 600.57 401.309C600.57 401.309 620.69 381.19 622.21 389.16C623.73 397.13 616.89 405.109 616.89 405.109C616.89 405.109 643.46 390.679 637.01 398.649C630.56 406.619 621.07 416.88 621.07 416.88C621.07 416.88 646.5 407.759 643.46 413.079C640.42 418.399 629.04 424.079 629.04 424.079C629.04 424.079 649.92 420.28 647.64 423.7C645.36 427.12 640.06 430.469 640.06 430.469H545.52C545.52 430.469 520.46 421.42 530.33 420.66C540.2 419.899 549.33 424.079 549.33 424.079C549.33 424.079 518.59 403.199 533.01 401.679C547.43 400.159 559.2 418.38 559.2 418.38C559.2 418.38 538.7 389.529 545.92 394.089L563.2 412.579Z" fill="#3E57E1"/>
<path d="M564.49 422.379C564.49 422.379 538.71 395.669 546 396.469C553.29 397.269 566.77 417.249 566.77 417.249C566.77 417.249 566.96 373.249 573.39 382.869C579.82 392.489 571.92 417.429 571.92 417.429C571.92 417.429 590.3 388.749 590.26 393.429C590.13 407.919 576.1 419.249 576.1 419.249C576.1 419.249 605.53 397.449 600.71 406.249C595.89 415.049 577 423.499 577 423.499C577 423.499 610.93 416.649 598.87 421.499C586.81 426.349 575.34 429.639 575.34 429.639H566C566 429.639 534 413.559 546 415.969C558 418.379 564.49 422.379 564.49 422.379Z" fill="#263238"/>
<path d="M575.43 430.109H565.87L565.76 430.059C554.93 424.619 542.16 417.739 542.83 415.799C543.06 415.129 543.98 415.029 546.1 415.449C551.582 416.497 556.92 418.196 562 420.509C556.09 414.259 542.8 399.679 544.29 396.659C544.47 396.279 544.92 395.859 545.98 395.979C552.35 396.679 562.98 411.159 566.21 415.669C566.3 407.449 566.91 382.329 571.21 381.049C572.06 380.789 572.92 381.309 573.78 382.589C578.92 390.319 575.22 407.169 573.31 414.309C579.47 404.809 588.25 391.879 590.16 392.449C590.38 392.519 590.74 392.729 590.73 393.449C590.65 402.449 585.22 410.329 581.06 415.039C588.49 409.759 599.55 402.399 601.37 403.979C602.07 404.589 601.56 405.739 601.12 406.549C597.52 413.139 586.56 419.339 580.81 422.249C601.49 418.249 601.81 419.399 601.98 419.859C602.17 420.499 601.49 420.989 599.1 421.949C587.1 426.729 575.63 430.069 575.52 430.099L575.43 430.109ZM566.1 429.109H575.29C576.29 428.829 587.29 425.579 598.71 421.009C599.299 420.782 599.877 420.525 600.44 420.239C597.53 420.239 586.79 422.039 577.11 423.989L572.65 424.889L576.81 423.039C577 422.959 595.53 414.649 600.22 406.039C600.81 404.969 600.68 404.689 600.68 404.689C599.37 403.779 587.03 411.689 576.34 419.689L575.73 418.899C575.87 418.789 589.53 407.589 589.73 393.549C587.73 394.769 579.41 406.659 572.31 417.729L570.31 420.909L571.45 417.309C571.53 417.059 579.21 392.509 572.98 383.179C572.66 382.689 572.03 381.889 571.54 382.039C568.54 382.939 567.34 404.129 567.28 417.279V418.899L566.38 417.559C566.24 417.359 552.89 397.769 545.96 396.999C545.78 396.999 545.36 396.949 545.28 397.129C544.28 399.219 556.14 412.969 564.92 422.059L567.73 424.969L564.29 422.829C564.23 422.829 557.78 418.829 545.97 416.459C545.317 416.294 544.644 416.22 543.97 416.239C545 417.879 555.82 423.939 566.1 429.109Z" fill="#263238"/>
<path d="M147.85 381.571C147.85 381.571 149.85 379.721 151.64 379.721C153.43 379.721 158.74 382.291 158.74 382.291C158.74 382.291 160.88 385.591 161.07 385.791C161.26 385.991 163.89 387.111 164.07 387.571C164.25 388.031 164.65 389.571 164.65 389.571H148.33L145.33 381.651L147.85 381.571Z" fill="white"/>
<path d="M165.32 390.051H148L144.61 381.151L147.66 381.071C148.18 380.641 149.99 379.221 151.66 379.221C153.47 379.221 158.42 381.581 158.98 381.841L159.1 381.901L159.18 382.021C160.18 383.551 161.31 385.271 161.46 385.451L162.18 385.811C163.8 386.611 164.4 386.971 164.57 387.371C164.74 387.771 165.14 389.261 165.18 389.421L165.32 390.051ZM148.68 389.051H164C163.893 388.614 163.763 388.184 163.61 387.761C162.998 387.364 162.36 387.01 161.7 386.701C161.343 386.559 161.007 386.371 160.7 386.141C160.5 385.941 159.19 383.941 158.38 382.681C156.82 381.941 152.93 380.221 151.62 380.221C150.08 380.221 148.18 381.921 148.16 381.941L148.02 382.061L146.02 382.121L148.68 389.051Z" fill="#263238"/>
<path d="M151.64 379.72L151.54 381.28C151.54 381.28 155.72 383.71 155.63 384.59C155.388 385.589 155.053 386.564 154.63 387.5L156.77 389.74H145.42L146.29 383.03C146.29 383.03 148.72 379.53 151.64 379.72Z" fill="#263238"/>
<path d="M126.55 380.6C126.55 380.6 134.72 368.34 136.55 368.15C137.97 368.189 139.36 368.562 140.609 369.237C141.858 369.913 142.931 370.873 143.74 372.04C144.952 374.538 145.929 377.142 146.66 379.82C146.76 380.11 147.15 380.31 149.38 383.9C151.61 387.49 151.52 389.55 151.52 389.55H119.93C120.305 387.785 120.928 386.081 121.78 384.49C122.765 383.244 124.132 382.355 125.67 381.96L126.55 380.6Z" fill="white"/>
<path d="M152 390.05H119.3L119.42 389.44C119.809 387.618 120.456 385.861 121.34 384.22C122.339 382.906 123.746 381.96 125.34 381.53L126.12 380.32C128.12 377.4 134.57 367.86 136.5 367.65C138.018 367.682 139.507 368.073 140.844 368.793C142.181 369.513 143.328 370.54 144.19 371.79C145.414 374.223 146.379 376.777 147.07 379.41L147.14 379.66L147.33 379.91C147.65 380.34 148.33 381.24 149.82 383.64C152.11 387.33 152.04 389.48 152.03 389.57L152 390.05ZM120.55 389.05H151C150.671 387.305 149.991 385.645 149 384.17C148.248 382.914 147.434 381.695 146.56 380.52C146.418 380.362 146.307 380.179 146.23 379.98C146.193 379.886 146.163 379.789 146.14 379.69C145.489 377.127 144.553 374.645 143.35 372.29C142.591 371.204 141.59 370.31 140.425 369.678C139.26 369.046 137.964 368.694 136.64 368.65C135.64 368.8 130.91 374.98 126.99 380.87L125.99 382.4L125.79 382.45C124.377 382.81 123.117 383.617 122.2 384.75C121.461 386.102 120.913 387.549 120.57 389.05H120.55Z" fill="#263238"/>
<path d="M139.09 389.35C139.09 389.35 138.22 387.21 138.09 386.92C137.96 386.63 137.99 383.81 137.7 382.64C136.941 380.97 136.031 379.374 134.98 377.87L136.73 372.82L135.85 372.14L137.31 368.54L136.5 368.16C134.58 368.5 126.5 380.6 126.5 380.6L125.62 381.96C124.082 382.355 122.715 383.244 121.73 384.49C120.9 386.015 120.293 387.652 119.93 389.35H139.09Z" fill="#263238"/>
<path d="M462.84 384.62C463.501 384.007 464.33 383.603 465.22 383.46C466.32 383.46 469.67 385.07 469.67 385.07C469.67 385.07 471.01 387.14 471.13 387.26C471.25 387.38 472.9 388.09 473.02 388.38C473.14 388.67 473.39 389.62 473.39 389.62H463.14L461.25 384.62H462.84Z" fill="white"/>
<path d="M474 390.12H462.8L460.54 384.18L462.65 384.12C463.367 383.478 464.264 383.073 465.22 382.96C466.4 382.96 469.53 384.45 469.89 384.62L470.01 384.68L470.09 384.8C470.7 385.75 471.4 386.8 471.51 386.93C471.62 387.06 471.69 387 471.9 387.11C472.97 387.65 473.35 387.88 473.48 388.18C473.635 388.609 473.766 389.046 473.87 389.49L474 390.12ZM463.46 389.12H472.71C472.64 388.88 472.57 388.67 472.53 388.57C472.49 388.47 471.73 388.16 471.42 388C471.177 387.907 470.951 387.775 470.75 387.61C470.218 386.928 469.733 386.209 469.3 385.46C467.998 384.789 466.618 384.285 465.19 383.96C464.424 384.087 463.712 384.435 463.14 384.96L463.01 385.08H461.94L463.46 389.12Z" fill="#263238"/>
<path d="M465.22 383.461L465.16 384.461C465.16 384.461 467.78 385.991 467.72 386.541C467.575 387.169 467.371 387.781 467.11 388.371L468.45 389.771H461.31L461.86 385.561C461.86 385.561 463.39 383.341 465.22 383.461Z" fill="#263238"/>
<path d="M449.48 384C449.48 384 454.61 376.31 455.77 376.19C456.66 376.218 457.531 376.453 458.314 376.877C459.097 377.3 459.77 377.901 460.28 378.63C461.038 380.198 461.65 381.831 462.11 383.51C462.17 383.69 462.41 383.82 463.82 386.07C464.583 387.105 465.047 388.33 465.16 389.61H445.34C445.572 388.503 445.963 387.436 446.5 386.44C447.118 385.658 447.975 385.099 448.94 384.85L449.48 384Z" fill="white"/>
<path d="M465.63 390.12H444.72L444.85 389.51C445.096 388.348 445.506 387.226 446.07 386.18C446.708 385.336 447.603 384.722 448.62 384.43L449.07 383.73C451.07 380.79 454.5 375.83 455.71 375.73C456.697 375.742 457.668 375.992 458.538 376.458C459.408 376.925 460.154 377.595 460.71 378.41C461.493 379.949 462.107 381.569 462.54 383.24V383.38C462.54 383.38 462.54 383.38 462.63 383.49C462.83 383.76 463.26 384.32 464.2 385.84C465.019 386.957 465.51 388.28 465.62 389.66L465.63 390.12ZM445.98 389.12H464.6C464.363 388.13 463.953 387.189 463.39 386.34C462.47 384.87 462.06 384.34 461.87 384.07C461.769 383.954 461.688 383.823 461.63 383.68L461.58 383.5C461.171 381.905 460.587 380.359 459.84 378.89C459.385 378.244 458.788 377.71 458.094 377.331C457.401 376.951 456.63 376.735 455.84 376.7C455.17 376.92 452.24 380.81 449.92 384.28L449.27 385.28L449.08 385.33C448.238 385.54 447.487 386.017 446.94 386.69C446.516 387.453 446.199 388.271 446 389.12H445.98Z" fill="#263238"/>
<path d="M457.35 389.5C457.35 389.5 456.8 388.15 456.74 387.97C456.68 387.79 456.68 385.97 456.5 385.29C456.02 384.242 455.447 383.238 454.79 382.29L455.89 379.12L455.34 378.69L456.25 376.44L455.74 376.2C454.54 376.41 449.48 384 449.48 384L448.94 384.85C447.975 385.099 447.118 385.658 446.5 386.44C445.977 387.396 445.596 388.424 445.37 389.49L457.35 389.5Z" fill="#263238"/>
<path d="M628.22 414.53C628.22 414.53 632.08 411.04 635.39 411.04C638.7 411.04 648.81 415.9 648.81 415.9C648.81 415.9 652.86 422.13 653.22 422.51C653.58 422.89 658.55 425 658.92 425.87C659.29 426.74 660.02 429.61 660.02 429.61H629.14L623.44 414.66L628.22 414.53Z" fill="white"/>
<path d="M660.67 430.11H628.8L622.72 414.17L628 414C628.75 413.35 632.23 410.5 635.36 410.5C638.75 410.5 648.58 415.21 649 415.41L649.12 415.47L649.2 415.59C650.73 417.95 653.27 421.8 653.55 422.12C653.67 422.21 654.41 422.58 655.06 422.91C657.81 424.28 659.06 425 659.35 425.64C659.73 426.53 660.45 429.33 660.48 429.45L660.67 430.11ZM629.49 429.11H659.38C659.14 428.22 658.71 426.65 658.46 426.11C658.21 425.57 655.8 424.46 654.64 423.88C654.015 423.613 653.422 423.277 652.87 422.88C652.5 422.51 649.51 417.88 648.47 416.31C647.3 415.76 638.36 411.56 635.39 411.56C632.42 411.56 628.59 414.89 628.56 414.92L628.42 415.05L624.16 415.16L629.49 429.11Z" fill="#263238"/>
<path d="M635.39 411.001L635.21 413.941C635.21 413.941 643.11 418.541 642.93 420.191C642.489 422.084 641.873 423.932 641.09 425.711L645.09 429.941H623.59L625.24 417.251C625.24 417.251 629.88 410.681 635.39 411.001Z" fill="#263238"/>
<path d="M588 412.7C588 412.7 603.45 389.54 606.94 389.17C610.43 388.8 617.78 391.74 620.54 396.52C623.3 401.3 625.87 410.68 626.06 411.23C626.25 411.78 626.98 412.15 631.2 418.95C635.42 425.75 635.25 429.61 635.25 429.61H575.46C575.46 429.61 576.75 423.54 578.96 420.05C581.17 416.56 586.31 415.27 586.31 415.27L588 412.7Z" fill="white"/>
<path d="M635.68 430.111H574.85L574.98 429.511C574.98 429.251 576.31 423.311 578.53 419.781C580.6 416.511 585 415.121 585.99 414.841L587.55 412.421C589.14 410.031 603.22 389.051 606.85 388.671C610.48 388.291 618.07 391.301 620.93 396.271C622.58 399.121 624.4 403.931 626.35 410.581C626.42 410.841 626.47 411.011 626.49 411.071C626.603 411.286 626.741 411.487 626.9 411.671C627.51 412.481 628.77 414.151 631.59 418.671C635.85 425.531 635.71 429.461 635.71 429.621L635.68 430.111ZM576.09 429.111H634.69C634.58 427.901 633.98 424.431 630.69 419.211C629.261 416.824 627.712 414.511 626.05 412.281C625.818 412.011 625.629 411.708 625.49 411.381L625.34 410.861C623.41 404.291 621.62 399.551 620.02 396.771C617.39 392.211 610.24 389.301 606.9 389.661C604.53 389.911 594.25 404.091 588.33 412.971L586.57 415.711L586.38 415.761C586.38 415.761 581.38 417.041 579.38 420.321C577.88 423.084 576.773 426.042 576.09 429.111Z" fill="#263238"/>
<path d="M611.68 429.24C611.68 429.24 610.02 425.24 609.84 424.65C609.66 424.06 609.66 418.76 609.1 416.56C608.54 414.36 603.96 407.56 603.96 407.56L607.27 398L605.61 396.71L608.37 389.91L606.83 389.2C603.21 389.85 587.96 412.71 587.96 412.71L586.31 415.28C586.31 415.28 581.16 416.57 578.96 420.06C577.07 423.06 575.86 427.9 575.55 429.25L611.68 429.24Z" fill="#263238"/>
</svg>
